<svg xmlns="http://www.w3.org/2000/svg" width="100.91000000000001" height="35" viewBox="0 0 100.91000000000001 35"><rect class="svg__rect" x="0" y="0" width="55.260000000000005" height="35" fill="#1572B6"/><rect class="svg__rect" x="53.260000000000005" y="0" width="47.650000000000006" height="35" fill="#1547B6"/><path class="svg__text" d="M13.95 18.19L13.95 18.19L13.95 17.39Q13.95 16.19 14.38 15.27Q14.80 14.35 15.60 13.85Q16.40 13.35 17.45 13.35L17.45 13.35Q18.86 13.35 19.73 14.12Q20.59 14.89 20.73 16.29L20.73 16.29L19.25 16.29Q19.14 15.37 18.71 14.96Q18.28 14.55 17.45 14.55L17.45 14.55Q16.48 14.55 15.97 15.26Q15.45 15.96 15.44 17.33L15.44 17.33L15.44 18.09Q15.44 19.47 15.93 20.20Q16.43 20.92 17.38 20.92L17.38 20.92Q18.25 20.92 18.69 20.53Q19.13 20.14 19.25 19.22L19.25 19.22L20.73 19.22Q20.60 20.59 19.72 21.35Q18.84 22.12 17.38 22.12L17.38 22.12Q16.36 22.12 15.59 21.63Q14.81 21.15 14.39 20.26Q13.97 19.37 13.95 18.19ZM24.61 19.42L24.61 19.42L26.09 19.42Q26.09 20.15 26.57 20.55Q27.05 20.95 27.95 20.95L27.95 20.95Q28.72 20.95 29.11 20.63Q29.50 20.32 29.50 19.80L29.50 19.80Q29.50 19.24 29.10 18.94Q28.71 18.63 27.68 18.32Q26.64 18.01 26.04 17.63L26.04 17.63Q24.87 16.90 24.87 15.72L24.87 15.72Q24.87 14.69 25.71 14.02Q26.55 13.35 27.89 13.35L27.89 13.35Q28.78 13.35 29.48 13.68Q30.18 14.01 30.58 14.61Q30.98 15.22 30.98 15.96L30.98 15.96L29.50 15.96Q29.50 15.29 29.08 14.91Q28.66 14.54 27.88 14.54L27.88 14.54Q27.15 14.54 26.75 14.85Q26.35 15.16 26.35 15.71L26.35 15.71Q26.35 16.18 26.79 16.50Q27.22 16.81 28.22 17.10Q29.21 17.40 29.81 17.78Q30.42 18.16 30.70 18.65Q30.98 19.13 30.98 19.79L30.98 19.79Q30.98 20.86 30.16 21.49Q29.35 22.12 27.95 22.12L27.95 22.12Q27.02 22.12 26.24 21.77Q25.47 21.43 25.04 20.83Q24.61 20.22 24.61 19.42ZM34.84 19.42L34.84 19.42L36.32 19.42Q36.32 20.15 36.80 20.55Q37.28 20.95 38.18 20.95L38.18 20.95Q38.95 20.95 39.34 20.63Q39.73 20.32 39.73 19.80L39.73 19.80Q39.73 19.24 39.33 18.94Q38.94 18.63 37.91 18.32Q36.88 18.01 36.27 17.63L36.27 17.63Q35.10 16.90 35.10 15.72L35.10 15.72Q35.10 14.69 35.94 14.02Q36.78 13.35 38.12 13.35L38.12 13.35Q39.01 13.35 39.71 13.68Q40.41 14.01 40.81 14.61Q41.21 15.22 41.21 15.96L41.21 15.96L39.73 15.96Q39.73 15.29 39.31 14.91Q38.89 14.54 38.11 14.54L38.11 14.54Q37.39 14.54 36.98 14.85Q36.58 15.16 36.58 15.71L36.58 15.71Q36.58 16.18 37.02 16.50Q37.45 16.81 38.45 17.10Q39.44 17.40 40.05 17.78Q40.65 18.16 40.93 18.65Q41.21 19.13 41.21 19.79L41.21 19.79Q41.21 20.86 40.39 21.49Q39.58 22.12 38.18 22.12L38.18 22.12Q37.25 22.12 36.47 21.77Q35.70 21.43 35.27 20.83Q34.84 20.22 34.84 19.42Z" fill="#FFFFFF"/><path class="svg__text" d="M66.97 19.53L66.97 19.53Q66.97 18.89 67.28 18.40Q67.59 17.91 68.17 17.57L68.17 17.57Q67.73 17.27 67.50 16.84Q67.27 16.41 67.27 15.88L67.27 15.88Q67.27 15.15 67.69 14.59Q68.11 14.03 68.87 13.73Q69.63 13.43 70.62 13.43L70.62 13.43Q71.60 13.43 72.36 13.73Q73.13 14.03 73.54 14.59Q73.96 15.15 73.96 15.88L73.96 15.88Q73.96 16.41 73.73 16.84Q73.50 17.27 73.07 17.57L73.07 17.57Q73.64 17.91 73.95 18.40Q74.27 18.89 74.27 19.53L74.27 19.53Q74.27 20.32 73.81 20.92Q73.35 21.52 72.53 21.84Q71.70 22.17 70.62 22.17L70.62 22.17Q69.54 22.17 68.71 21.84Q67.88 21.52 67.42 20.92Q66.97 20.32 66.97 19.53ZM69.36 19.46L69.36 19.46Q69.36 19.94 69.70 20.22Q70.04 20.50 70.62 20.50L70.62 20.50Q71.19 20.50 71.53 20.22Q71.88 19.94 71.88 19.46L71.88 19.46Q71.88 18.98 71.53 18.70Q71.19 18.41 70.62 18.41L70.62 18.41Q70.04 18.41 69.70 18.70Q69.36 18.98 69.36 19.46ZM69.62 15.99L69.62 15.99Q69.62 16.40 69.89 16.63Q70.16 16.86 70.62 16.86L70.62 16.86Q71.07 16.86 71.35 16.63Q71.63 16.40 71.63 15.99L71.63 15.99Q71.63 15.57 71.35 15.33Q71.07 15.10 70.62 15.10L70.62 15.10Q70.17 15.10 69.90 15.33Q69.62 15.57 69.62 15.99ZM78.39 15.82L78.39 15.82Q78.39 15.11 78.66 14.58Q78.94 14.05 79.42 13.77Q79.91 13.49 80.54 13.49L80.54 13.49Q81.50 13.49 82.10 14.12Q82.69 14.75 82.69 15.82L82.69 15.82Q82.69 16.90 82.09 17.52Q81.49 18.15 80.54 18.15L80.54 18.15Q79.59 18.15 78.99 17.53Q78.39 16.90 78.39 15.82ZM81.49 22L79.77 22L85.51 13.60L87.23 13.60L81.49 22ZM79.83 15.82L79.83 15.82Q79.83 16.42 80.03 16.71Q80.22 17.01 80.54 17.01L80.54 17.01Q80.86 17.01 81.05 16.72Q81.24 16.43 81.24 15.82L81.24 15.82Q81.24 15.21 81.05 14.92Q80.86 14.63 80.54 14.63L80.54 14.63Q80.23 14.63 80.03 14.93Q79.83 15.22 79.83 15.82ZM84.32 19.78L84.32 19.78Q84.32 18.71 84.92 18.08Q85.52 17.45 86.46 17.45L86.46 17.45Q87.42 17.45 88.02 18.08Q88.62 18.71 88.62 19.78L88.62 19.78Q88.62 20.86 88.02 21.48Q87.42 22.11 86.46 22.11L86.46 22.11Q85.51 22.11 84.91 21.48Q84.32 20.86 84.32 19.78ZM85.76 19.78L85.76 19.78Q85.76 20.39 85.95 20.68Q86.14 20.97 86.46 20.97L86.46 20.97Q86.79 20.97 86.98 20.68Q87.17 20.39 87.17 19.78L87.17 19.78Q87.17 19.17 86.98 18.88Q86.79 18.59 86.46 18.59L86.46 18.59Q86.14 18.59 85.95 18.88Q85.76 19.17 85.76 19.78Z" fill="#FFFFFF" x="66.26"/></svg>