<svg xmlns="http://www.w3.org/2000/svg" width="182.3" height="35" viewBox="0 0 182.3 35"><rect class="svg__rect" x="0" y="0" width="125.33" height="35" fill="#F7DF1E"/><rect class="svg__rect" x="123.33" y="0" width="58.97" height="35" fill="#FFB01C"/><path class="svg__text" d="M13.61 19.57L13.61 19.57L15.09 19.57Q15.09 20.25 15.43 20.59Q15.76 20.93 16.40 20.93L16.40 20.93Q17.00 20.93 17.35 20.54Q17.71 20.14 17.71 19.45L17.71 19.45L17.71 13.47L19.19 13.47L19.19 19.45Q19.19 20.68 18.42 21.40Q17.66 22.12 16.40 22.12L16.40 22.12Q15.07 22.12 14.34 21.44Q13.61 20.77 13.61 19.57ZM24.65 22L23.11 22L26.33 13.47L27.66 13.47L30.89 22L29.34 22L28.64 20.01L25.34 20.01L24.65 22ZM26.99 15.28L25.75 18.82L28.23 18.82L26.99 15.28ZM37.14 22L34.08 13.47L35.70 13.47L37.85 20.14L40.02 13.47L41.64 13.47L38.57 22L37.14 22ZM46.37 22L44.83 22L48.06 13.47L49.39 13.47L52.61 22L51.07 22L50.37 20.01L47.06 20.01L46.37 22ZM48.72 15.28L47.48 18.82L49.95 18.82L48.72 15.28ZM56.14 19.42L56.14 19.42L57.62 19.42Q57.62 20.15 58.10 20.55Q58.58 20.95 59.48 20.95L59.48 20.95Q60.25 20.95 60.64 20.63Q61.03 20.32 61.03 19.80L61.03 19.80Q61.03 19.24 60.63 18.94Q60.24 18.63 59.21 18.32Q58.17 18.01 57.56 17.63L57.56 17.63Q56.40 16.90 56.40 15.72L56.40 15.72Q56.40 14.69 57.24 14.02Q58.08 13.35 59.42 13.35L59.42 13.35Q60.31 13.35 61.01 13.68Q61.71 14.01 62.11 14.61Q62.50 15.22 62.50 15.96L62.50 15.96L61.03 15.96Q61.03 15.29 60.61 14.91Q60.19 14.54 59.41 14.54L59.41 14.54Q58.68 14.54 58.28 14.85Q57.88 15.16 57.88 15.71L57.88 15.71Q57.88 16.18 58.31 16.50Q58.75 16.81 59.74 17.10Q60.74 17.40 61.34 17.78Q61.95 18.16 62.23 18.65Q62.51 19.13 62.51 19.79L62.51 19.79Q62.51 20.86 61.69 21.49Q60.88 22.12 59.48 22.12L59.48 22.12Q58.55 22.12 57.77 21.77Q57.00 21.43 56.57 20.83Q56.14 20.22 56.14 19.42ZM66.53 18.19L66.53 18.19L66.53 17.39Q66.53 16.19 66.96 15.27Q67.39 14.35 68.18 13.85Q68.98 13.35 70.03 13.35L70.03 13.35Q71.45 13.35 72.31 14.12Q73.17 14.89 73.31 16.29L73.31 16.29L71.83 16.29Q71.73 15.37 71.30 14.96Q70.87 14.55 70.03 14.55L70.03 14.55Q69.07 14.55 68.55 15.26Q68.03 15.96 68.02 17.33L68.02 17.33L68.02 18.09Q68.02 19.47 68.51 20.20Q69.01 20.92 69.96 20.92L69.96 20.92Q70.84 20.92 71.28 20.53Q71.72 20.14 71.83 19.22L71.83 19.22L73.31 19.22Q73.18 20.59 72.30 21.35Q71.42 22.12 69.96 22.12L69.96 22.12Q68.94 22.12 68.17 21.63Q67.39 21.15 66.97 20.26Q66.55 19.37 66.53 18.19ZM79.10 22L77.62 22L77.62 13.47L80.62 13.47Q82.10 13.47 82.90 14.13Q83.70 14.79 83.70 16.05L83.70 16.05Q83.70 16.90 83.29 17.48Q82.88 18.06 82.14 18.37L82.14 18.37L84.06 21.92L84.06 22L82.47 22L80.76 18.71L79.10 18.71L79.10 22ZM79.10 14.66L79.10 17.52L80.63 17.52Q81.38 17.52 81.80 17.15Q82.22 16.77 82.22 16.11L82.22 16.11Q82.22 15.43 81.83 15.05Q81.44 14.68 80.67 14.66L80.67 14.66L79.10 14.66ZM89.66 22L88.19 22L88.19 13.47L89.66 13.47L89.66 22ZM95.96 22L94.47 22L94.47 13.47L97.74 13.47Q99.17 13.47 100.01 14.21Q100.85 14.96 100.85 16.18L100.85 16.18Q100.85 17.44 100.02 18.13Q99.20 18.83 97.72 18.83L97.72 18.83L95.96 18.83L95.96 22ZM95.96 14.66L95.96 17.64L97.74 17.64Q98.53 17.64 98.94 17.27Q99.36 16.90 99.36 16.19L99.36 16.19Q99.36 15.50 98.94 15.09Q98.52 14.68 97.78 14.66L97.78 14.66L95.96 14.66ZM106.81 14.66L104.18 14.66L104.18 13.47L110.94 13.47L110.94 14.66L108.28 14.66L108.28 22L106.81 22L106.81 14.66Z" fill="#FFFFFF"/><path class="svg__text" d="M136.63 21.34L136.63 21.34L137.49 19.55Q137.99 19.88 138.60 20.07Q139.22 20.25 139.83 20.25L139.83 20.25Q140.44 20.25 140.80 20.02Q141.16 19.79 141.16 19.37L141.16 19.37Q141.16 18.55 139.87 18.55L139.87 18.55L138.88 18.55L138.88 17.05L140.38 15.44L137.07 15.44L137.07 13.60L143.14 13.60L143.14 15.09L141.40 16.96Q142.44 17.18 143.00 17.82Q143.56 18.46 143.56 19.37L143.56 19.37Q143.56 20.11 143.15 20.75Q142.75 21.39 141.93 21.78Q141.11 22.17 139.90 22.17L139.90 22.17Q139.01 22.17 138.14 21.95Q137.27 21.74 136.63 21.34ZM147.81 17.80L147.81 17.80Q147.81 16.45 148.28 15.46Q148.75 14.46 149.59 13.95Q150.43 13.43 151.51 13.43L151.51 13.43Q152.58 13.43 153.42 13.95Q154.26 14.46 154.73 15.46Q155.21 16.45 155.21 17.80L155.21 17.80Q155.21 19.15 154.73 20.15Q154.26 21.14 153.42 21.65Q152.58 22.17 151.51 22.17L151.51 22.17Q150.43 22.17 149.59 21.65Q148.75 21.14 148.28 20.15Q147.81 19.16 147.81 17.80ZM150.19 17.80L150.19 17.80Q150.19 19.06 150.55 19.64Q150.90 20.22 151.51 20.22L151.51 20.22Q152.11 20.22 152.47 19.64Q152.82 19.06 152.82 17.80L152.82 17.80Q152.82 16.54 152.47 15.96Q152.11 15.38 151.51 15.38L151.51 15.38Q150.90 15.38 150.55 15.96Q150.19 16.54 150.19 17.80ZM159.36 15.82L159.36 15.82Q159.36 15.11 159.64 14.58Q159.91 14.05 160.40 13.77Q160.89 13.49 161.51 13.49L161.51 13.49Q162.47 13.49 163.07 14.12Q163.67 14.75 163.67 15.82L163.67 15.82Q163.67 16.90 163.07 17.52Q162.47 18.15 161.51 18.15L161.51 18.15Q160.56 18.15 159.96 17.53Q159.36 16.90 159.36 15.82ZM162.47 22L160.74 22L166.48 13.60L168.20 13.60L162.47 22ZM160.80 15.82L160.80 15.82Q160.80 16.42 161.00 16.71Q161.20 17.01 161.51 17.01L161.51 17.01Q161.83 17.01 162.02 16.72Q162.22 16.43 162.22 15.82L162.22 15.82Q162.22 15.21 162.02 14.92Q161.83 14.63 161.51 14.63L161.51 14.63Q161.20 14.63 161.00 14.93Q160.80 15.22 160.80 15.82ZM165.29 19.78L165.29 19.78Q165.29 18.71 165.89 18.08Q166.49 17.45 167.44 17.45L167.44 17.45Q168.40 17.45 169.00 18.08Q169.60 18.71 169.60 19.78L169.60 19.78Q169.60 20.86 169.00 21.48Q168.40 22.11 167.44 22.11L167.44 22.11Q166.48 22.11 165.89 21.48Q165.29 20.86 165.29 19.78ZM166.73 19.78L166.73 19.78Q166.73 20.39 166.92 20.68Q167.11 20.97 167.44 20.97L167.44 20.97Q167.76 20.97 167.95 20.68Q168.14 20.39 168.14 19.78L168.14 19.78Q168.14 19.17 167.95 18.88Q167.76 18.59 167.44 18.59L167.44 18.59Q167.11 18.59 166.92 18.88Q166.73 19.17 166.73 19.78Z" fill="#FFFFFF" x="136.32999999999998"/></svg>