<svg xmlns="http://www.w3.org/2000/svg" width="120.71" height="35" viewBox="0 0 120.71 35"><rect class="svg__rect" x="0" y="0" width="67" height="35" fill="#007396"/><rect class="svg__rect" x="65" y="0" width="55.709999999999994" height="35" fill="#003678"/><path class="svg__text" d="M13.61 19.57L13.61 19.57L15.09 19.57Q15.09 20.25 15.43 20.59Q15.76 20.93 16.40 20.93L16.40 20.93Q17.00 20.93 17.35 20.54Q17.71 20.14 17.71 19.45L17.71 19.45L17.71 13.47L19.19 13.47L19.19 19.45Q19.19 20.68 18.42 21.40Q17.66 22.12 16.40 22.12L16.40 22.12Q15.07 22.12 14.34 21.44Q13.61 20.77 13.61 19.57ZM24.65 22L23.11 22L26.33 13.47L27.66 13.47L30.89 22L29.34 22L28.64 20.01L25.34 20.01L24.65 22ZM26.99 15.28L25.75 18.82L28.23 18.82L26.99 15.28ZM37.14 22L34.08 13.47L35.70 13.47L37.85 20.14L40.02 13.47L41.64 13.47L38.57 22L37.14 22ZM46.37 22L44.83 22L48.06 13.47L49.39 13.47L52.61 22L51.07 22L50.37 20.01L47.06 20.01L46.37 22ZM48.72 15.28L47.48 18.82L49.95 18.82L48.72 15.28Z" fill="#FFFFFF"/><path class="svg__text" d="M78.76 18.03L78.76 18.03Q78.76 16.59 79.32 15.55Q79.87 14.51 80.88 13.97Q81.89 13.43 83.22 13.43L83.22 13.43Q83.94 13.43 84.59 13.59Q85.24 13.74 85.69 14.04L85.69 14.04L84.83 15.75Q84.22 15.31 83.28 15.31L83.28 15.31Q82.37 15.31 81.81 15.82Q81.24 16.32 81.16 17.27L81.16 17.27Q81.88 16.65 83.06 16.65L83.06 16.65Q83.85 16.65 84.51 16.98Q85.16 17.31 85.55 17.91Q85.94 18.52 85.94 19.30L85.94 19.30Q85.94 20.15 85.51 20.80Q85.07 21.46 84.32 21.82Q83.57 22.17 82.64 22.17L82.64 22.17Q80.85 22.17 79.80 21.10Q78.76 20.03 78.76 18.03ZM81.33 19.42L81.33 19.42Q81.33 19.89 81.64 20.18Q81.96 20.48 82.50 20.48L82.50 20.48Q83.01 20.48 83.32 20.19Q83.64 19.90 83.64 19.41L83.64 19.41Q83.64 18.93 83.32 18.64Q83.01 18.35 82.49 18.35L82.49 18.35Q81.98 18.35 81.65 18.65Q81.33 18.94 81.33 19.42ZM91.26 15.44L89.69 15.44L89.69 13.60L93.63 13.60L93.63 22L91.26 22L91.26 15.44ZM98.23 15.82L98.23 15.82Q98.23 15.11 98.51 14.58Q98.78 14.05 99.27 13.77Q99.75 13.49 100.38 13.49L100.38 13.49Q101.34 13.49 101.94 14.12Q102.54 14.75 102.54 15.82L102.54 15.82Q102.54 16.90 101.94 17.52Q101.34 18.15 100.38 18.15L100.38 18.15Q99.43 18.15 98.83 17.53Q98.23 16.90 98.23 15.82ZM101.34 22L99.61 22L105.35 13.60L107.07 13.60L101.34 22ZM99.67 15.82L99.67 15.82Q99.67 16.42 99.87 16.71Q100.06 17.01 100.38 17.01L100.38 17.01Q100.70 17.01 100.89 16.72Q101.08 16.43 101.08 15.82L101.08 15.82Q101.08 15.21 100.89 14.92Q100.70 14.63 100.38 14.63L100.38 14.63Q100.07 14.63 99.87 14.93Q99.67 15.22 99.67 15.82ZM104.16 19.78L104.16 19.78Q104.16 18.71 104.76 18.08Q105.36 17.45 106.31 17.45L106.31 17.45Q107.27 17.45 107.87 18.08Q108.47 18.71 108.47 19.78L108.47 19.78Q108.47 20.86 107.87 21.48Q107.27 22.11 106.31 22.11L106.31 22.11Q105.35 22.11 104.76 21.48Q104.16 20.86 104.16 19.78ZM105.60 19.78L105.60 19.78Q105.60 20.39 105.79 20.68Q105.98 20.97 106.31 20.97L106.31 20.97Q106.63 20.97 106.82 20.68Q107.01 20.39 107.01 19.78L107.01 19.78Q107.01 19.17 106.82 18.88Q106.63 18.59 106.31 18.59L106.31 18.59Q105.98 18.59 105.79 18.88Q105.60 19.17 105.60 19.78Z" fill="#FFFFFF" x="78"/></svg>